<mxfile host="Electron" modified="2023-07-23T08:41:23.515Z" agent="Mozilla/5.0 (Windows NT 10.0; Win64; x64) AppleWebKit/537.36 (KHTML, like Gecko) draw.io/21.5.0 Chrome/112.0.5615.204 Electron/24.5.1 Safari/537.36" etag="PpyjHgEwtkT5E6JOp_2N" version="21.5.0" type="device">
  <diagram name="Page-1" id="IbCNt1j11o4psGc3Slpi">
    <mxGraphModel dx="1381" dy="872" grid="1" gridSize="10" guides="1" tooltips="1" connect="1" arrows="1" fold="1" page="1" pageScale="1" pageWidth="850" pageHeight="1100" math="0" shadow="0">
      <root>
        <mxCell id="0" />
        <mxCell id="1" parent="0" />
        <mxCell id="6pMdFOtzP3qhya9XBugc-3" style="edgeStyle=orthogonalEdgeStyle;rounded=0;orthogonalLoop=1;jettySize=auto;html=1;exitX=0.5;exitY=1;exitDx=0;exitDy=0;" parent="1" source="6pMdFOtzP3qhya9XBugc-2" edge="1">
          <mxGeometry relative="1" as="geometry">
            <mxPoint x="425" y="100" as="targetPoint" />
          </mxGeometry>
        </mxCell>
        <mxCell id="6pMdFOtzP3qhya9XBugc-2" value="Start" style="ellipse;whiteSpace=wrap;html=1;" parent="1" vertex="1">
          <mxGeometry x="365" y="20" width="120" height="40" as="geometry" />
        </mxCell>
        <mxCell id="6pMdFOtzP3qhya9XBugc-8" style="edgeStyle=orthogonalEdgeStyle;rounded=0;orthogonalLoop=1;jettySize=auto;html=1;exitX=0.5;exitY=1;exitDx=0;exitDy=0;" parent="1" source="6pMdFOtzP3qhya9XBugc-5" edge="1">
          <mxGeometry relative="1" as="geometry">
            <mxPoint x="425" y="180" as="targetPoint" />
          </mxGeometry>
        </mxCell>
        <mxCell id="6pMdFOtzP3qhya9XBugc-5" value="platform introductory page" style="rounded=0;whiteSpace=wrap;html=1;" parent="1" vertex="1">
          <mxGeometry x="345" y="100" width="160" height="40" as="geometry" />
        </mxCell>
        <mxCell id="6pMdFOtzP3qhya9XBugc-9" style="edgeStyle=orthogonalEdgeStyle;rounded=0;orthogonalLoop=1;jettySize=auto;html=1;exitX=0.5;exitY=1;exitDx=0;exitDy=0;" parent="1" source="6pMdFOtzP3qhya9XBugc-6" target="6pMdFOtzP3qhya9XBugc-10" edge="1">
          <mxGeometry relative="1" as="geometry">
            <mxPoint x="425" y="260" as="targetPoint" />
          </mxGeometry>
        </mxCell>
        <mxCell id="6pMdFOtzP3qhya9XBugc-6" value="user registration page" style="rounded=0;whiteSpace=wrap;html=1;" parent="1" vertex="1">
          <mxGeometry x="340" y="180" width="170" height="40" as="geometry" />
        </mxCell>
        <mxCell id="6pMdFOtzP3qhya9XBugc-11" style="edgeStyle=orthogonalEdgeStyle;rounded=0;orthogonalLoop=1;jettySize=auto;html=1;exitX=0.5;exitY=1;exitDx=0;exitDy=0;" parent="1" source="6pMdFOtzP3qhya9XBugc-10" target="6pMdFOtzP3qhya9XBugc-12" edge="1">
          <mxGeometry relative="1" as="geometry">
            <mxPoint x="425" y="330" as="targetPoint" />
          </mxGeometry>
        </mxCell>
        <mxCell id="6pMdFOtzP3qhya9XBugc-10" value="enter user data" style="shape=parallelogram;perimeter=parallelogramPerimeter;whiteSpace=wrap;html=1;fixedSize=1;" parent="1" vertex="1">
          <mxGeometry x="340" y="260" width="170" height="30" as="geometry" />
        </mxCell>
        <mxCell id="6pMdFOtzP3qhya9XBugc-13" value="no" style="edgeStyle=orthogonalEdgeStyle;rounded=0;orthogonalLoop=1;jettySize=auto;html=1;exitX=1;exitY=0.5;exitDx=0;exitDy=0;" parent="1" source="6pMdFOtzP3qhya9XBugc-12" edge="1">
          <mxGeometry relative="1" as="geometry">
            <mxPoint x="570" y="380" as="targetPoint" />
          </mxGeometry>
        </mxCell>
        <mxCell id="6pMdFOtzP3qhya9XBugc-16" value="yes" style="edgeStyle=orthogonalEdgeStyle;rounded=0;orthogonalLoop=1;jettySize=auto;html=1;exitX=0.5;exitY=1;exitDx=0;exitDy=0;" parent="1" source="6pMdFOtzP3qhya9XBugc-12" edge="1">
          <mxGeometry relative="1" as="geometry">
            <mxPoint x="425" y="480" as="targetPoint" />
          </mxGeometry>
        </mxCell>
        <mxCell id="6pMdFOtzP3qhya9XBugc-12" value="&amp;nbsp; &amp;nbsp;registration is successfully done" style="rhombus;whiteSpace=wrap;html=1;" parent="1" vertex="1">
          <mxGeometry x="350" y="330" width="150" height="100" as="geometry" />
        </mxCell>
        <mxCell id="6pMdFOtzP3qhya9XBugc-17" style="edgeStyle=orthogonalEdgeStyle;rounded=0;orthogonalLoop=1;jettySize=auto;html=1;exitX=1;exitY=0.5;exitDx=0;exitDy=0;" parent="1" source="6pMdFOtzP3qhya9XBugc-15" target="6pMdFOtzP3qhya9XBugc-18" edge="1">
          <mxGeometry relative="1" as="geometry">
            <mxPoint x="720" y="380" as="targetPoint" />
          </mxGeometry>
        </mxCell>
        <mxCell id="6pMdFOtzP3qhya9XBugc-19" value="yes" style="edgeStyle=orthogonalEdgeStyle;rounded=0;orthogonalLoop=1;jettySize=auto;html=1;" parent="1" source="6pMdFOtzP3qhya9XBugc-15" target="6pMdFOtzP3qhya9XBugc-18" edge="1">
          <mxGeometry relative="1" as="geometry" />
        </mxCell>
        <mxCell id="6pMdFOtzP3qhya9XBugc-20" value="no" style="edgeStyle=orthogonalEdgeStyle;rounded=0;orthogonalLoop=1;jettySize=auto;html=1;exitX=0.5;exitY=1;exitDx=0;exitDy=0;" parent="1" source="6pMdFOtzP3qhya9XBugc-15" target="6pMdFOtzP3qhya9XBugc-21" edge="1">
          <mxGeometry relative="1" as="geometry">
            <mxPoint x="620" y="460" as="targetPoint" />
          </mxGeometry>
        </mxCell>
        <mxCell id="6pMdFOtzP3qhya9XBugc-15" value="the user has already registered&amp;nbsp;" style="rhombus;whiteSpace=wrap;html=1;" parent="1" vertex="1">
          <mxGeometry x="570" y="330" width="100" height="100" as="geometry" />
        </mxCell>
        <mxCell id="6pMdFOtzP3qhya9XBugc-18" value="this user is already registered message" style="rounded=0;whiteSpace=wrap;html=1;" parent="1" vertex="1">
          <mxGeometry x="710" y="360" width="120" height="40" as="geometry" />
        </mxCell>
        <mxCell id="6pMdFOtzP3qhya9XBugc-21" value="show error message" style="rounded=0;whiteSpace=wrap;html=1;" parent="1" vertex="1">
          <mxGeometry x="560" y="470" width="120" height="30" as="geometry" />
        </mxCell>
        <mxCell id="6pMdFOtzP3qhya9XBugc-24" style="edgeStyle=orthogonalEdgeStyle;rounded=0;orthogonalLoop=1;jettySize=auto;html=1;exitX=0.5;exitY=1;exitDx=0;exitDy=0;entryX=0.5;entryY=0;entryDx=0;entryDy=0;" parent="1" source="6pMdFOtzP3qhya9XBugc-22" target="6pMdFOtzP3qhya9XBugc-23" edge="1">
          <mxGeometry relative="1" as="geometry" />
        </mxCell>
        <mxCell id="6pMdFOtzP3qhya9XBugc-22" value="store user registration data" style="rounded=0;whiteSpace=wrap;html=1;" parent="1" vertex="1">
          <mxGeometry x="350" y="480" width="150" height="40" as="geometry" />
        </mxCell>
        <mxCell id="6pMdFOtzP3qhya9XBugc-55" style="edgeStyle=orthogonalEdgeStyle;rounded=0;orthogonalLoop=1;jettySize=auto;html=1;exitX=0.5;exitY=1;exitDx=0;exitDy=0;entryX=0.5;entryY=0;entryDx=0;entryDy=0;" parent="1" source="6pMdFOtzP3qhya9XBugc-23" target="6pMdFOtzP3qhya9XBugc-53" edge="1">
          <mxGeometry relative="1" as="geometry" />
        </mxCell>
        <mxCell id="6pMdFOtzP3qhya9XBugc-23" value="user login page" style="rounded=0;whiteSpace=wrap;html=1;" parent="1" vertex="1">
          <mxGeometry x="340" y="570" width="170" height="30" as="geometry" />
        </mxCell>
        <mxCell id="6pMdFOtzP3qhya9XBugc-50" value="no" style="edgeStyle=orthogonalEdgeStyle;rounded=0;orthogonalLoop=1;jettySize=auto;html=1;exitX=1;exitY=0.5;exitDx=0;exitDy=0;entryX=0;entryY=0.5;entryDx=0;entryDy=0;" parent="1" source="6pMdFOtzP3qhya9XBugc-26" target="6pMdFOtzP3qhya9XBugc-28" edge="1">
          <mxGeometry relative="1" as="geometry" />
        </mxCell>
        <mxCell id="6pMdFOtzP3qhya9XBugc-52" value="yes" style="edgeStyle=orthogonalEdgeStyle;rounded=0;orthogonalLoop=1;jettySize=auto;html=1;exitX=0.5;exitY=1;exitDx=0;exitDy=0;entryX=0.5;entryY=0;entryDx=0;entryDy=0;" parent="1" source="6pMdFOtzP3qhya9XBugc-26" target="6pMdFOtzP3qhya9XBugc-31" edge="1">
          <mxGeometry relative="1" as="geometry" />
        </mxCell>
        <mxCell id="6pMdFOtzP3qhya9XBugc-26" value="login is done successfully" style="rhombus;whiteSpace=wrap;html=1;" parent="1" vertex="1">
          <mxGeometry x="380" y="710" width="90" height="90" as="geometry" />
        </mxCell>
        <mxCell id="6pMdFOtzP3qhya9XBugc-28" value="show error message" style="rounded=0;whiteSpace=wrap;html=1;" parent="1" vertex="1">
          <mxGeometry x="580" y="670" width="120" height="30" as="geometry" />
        </mxCell>
        <mxCell id="6pMdFOtzP3qhya9XBugc-36" value="yes" style="edgeStyle=orthogonalEdgeStyle;rounded=0;orthogonalLoop=1;jettySize=auto;html=1;exitX=0.5;exitY=1;exitDx=0;exitDy=0;" parent="1" source="6pMdFOtzP3qhya9XBugc-31" target="6pMdFOtzP3qhya9XBugc-37" edge="1">
          <mxGeometry relative="1" as="geometry">
            <mxPoint x="425" y="920" as="targetPoint" />
          </mxGeometry>
        </mxCell>
        <mxCell id="3sMK4BRBnz9dFjiMhqUr-1" value="no" style="edgeStyle=orthogonalEdgeStyle;rounded=0;orthogonalLoop=1;jettySize=auto;html=1;exitX=1;exitY=0.5;exitDx=0;exitDy=0;entryX=0;entryY=0.5;entryDx=0;entryDy=0;" edge="1" parent="1" source="6pMdFOtzP3qhya9XBugc-31" target="6pMdFOtzP3qhya9XBugc-35">
          <mxGeometry relative="1" as="geometry" />
        </mxCell>
        <mxCell id="6pMdFOtzP3qhya9XBugc-31" value="user is a student" style="rhombus;whiteSpace=wrap;html=1;" parent="1" vertex="1">
          <mxGeometry x="380" y="845" width="90" height="90" as="geometry" />
        </mxCell>
        <mxCell id="6pMdFOtzP3qhya9XBugc-40" value="yes" style="edgeStyle=orthogonalEdgeStyle;rounded=0;orthogonalLoop=1;jettySize=auto;html=1;exitX=0.5;exitY=1;exitDx=0;exitDy=0;" parent="1" source="6pMdFOtzP3qhya9XBugc-35" target="6pMdFOtzP3qhya9XBugc-41" edge="1">
          <mxGeometry relative="1" as="geometry">
            <mxPoint x="700" y="910" as="targetPoint" />
          </mxGeometry>
        </mxCell>
        <mxCell id="6pMdFOtzP3qhya9XBugc-42" value="no" style="edgeStyle=orthogonalEdgeStyle;rounded=0;orthogonalLoop=1;jettySize=auto;html=1;exitX=1;exitY=0.5;exitDx=0;exitDy=0;" parent="1" source="6pMdFOtzP3qhya9XBugc-35" target="6pMdFOtzP3qhya9XBugc-43" edge="1">
          <mxGeometry relative="1" as="geometry">
            <mxPoint x="790" y="815" as="targetPoint" />
          </mxGeometry>
        </mxCell>
        <mxCell id="6pMdFOtzP3qhya9XBugc-35" value="user is an owner" style="rhombus;whiteSpace=wrap;html=1;" parent="1" vertex="1">
          <mxGeometry x="660" y="855" width="80" height="80" as="geometry" />
        </mxCell>
        <mxCell id="6pMdFOtzP3qhya9XBugc-45" style="edgeStyle=orthogonalEdgeStyle;rounded=0;orthogonalLoop=1;jettySize=auto;html=1;exitX=0.5;exitY=1;exitDx=0;exitDy=0;entryX=0.5;entryY=0;entryDx=0;entryDy=0;" parent="1" source="6pMdFOtzP3qhya9XBugc-37" target="6pMdFOtzP3qhya9XBugc-44" edge="1">
          <mxGeometry relative="1" as="geometry" />
        </mxCell>
        <mxCell id="6pMdFOtzP3qhya9XBugc-37" value="student dashboard" style="rounded=0;whiteSpace=wrap;html=1;" parent="1" vertex="1">
          <mxGeometry x="365" y="980" width="120" height="40" as="geometry" />
        </mxCell>
        <mxCell id="6pMdFOtzP3qhya9XBugc-47" style="edgeStyle=orthogonalEdgeStyle;rounded=0;orthogonalLoop=1;jettySize=auto;html=1;exitX=0.5;exitY=1;exitDx=0;exitDy=0;entryX=1;entryY=0.5;entryDx=0;entryDy=0;" parent="1" source="6pMdFOtzP3qhya9XBugc-41" target="6pMdFOtzP3qhya9XBugc-44" edge="1">
          <mxGeometry relative="1" as="geometry" />
        </mxCell>
        <mxCell id="6pMdFOtzP3qhya9XBugc-41" value="owner dashboard" style="rounded=0;whiteSpace=wrap;html=1;" parent="1" vertex="1">
          <mxGeometry x="660" y="980" width="120" height="40" as="geometry" />
        </mxCell>
        <mxCell id="6pMdFOtzP3qhya9XBugc-43" value="show error message" style="rounded=0;whiteSpace=wrap;html=1;" parent="1" vertex="1">
          <mxGeometry x="710" y="730" width="120" height="40" as="geometry" />
        </mxCell>
        <mxCell id="6pMdFOtzP3qhya9XBugc-44" value="end" style="ellipse;whiteSpace=wrap;html=1;" parent="1" vertex="1">
          <mxGeometry x="365" y="1150" width="120" height="40" as="geometry" />
        </mxCell>
        <mxCell id="6pMdFOtzP3qhya9XBugc-56" style="edgeStyle=orthogonalEdgeStyle;rounded=0;orthogonalLoop=1;jettySize=auto;html=1;exitX=0.5;exitY=1;exitDx=0;exitDy=0;entryX=0.5;entryY=0;entryDx=0;entryDy=0;" parent="1" source="6pMdFOtzP3qhya9XBugc-53" target="6pMdFOtzP3qhya9XBugc-26" edge="1">
          <mxGeometry relative="1" as="geometry" />
        </mxCell>
        <mxCell id="6pMdFOtzP3qhya9XBugc-53" value="enter user data" style="shape=parallelogram;perimeter=parallelogramPerimeter;whiteSpace=wrap;html=1;fixedSize=1;" parent="1" vertex="1">
          <mxGeometry x="340" y="650" width="170" height="30" as="geometry" />
        </mxCell>
      </root>
    </mxGraphModel>
  </diagram>
</mxfile>
